<svg width="164" height="50" viewBox="0 0 164 50" fill="none" xmlns="http://www.w3.org/2000/svg" xmlns:xlink="http://www.w3.org/1999/xlink" zoomAndPan="magnify" viewBox="0 0 375 374.999991" height="500" preserveAspectRatio="xMidYMid meet" version="1.0"><defs><g/></defs><path fill="rgb(17.248535%, 69.40918%, 73.728943%)" d="M 27.300781 12.910156 L 94.800781 12.910156 L 94.800781 80.410156 L 27.300781 80.410156 L 27.300781 12.910156 " fill-opacity="1" fill-rule="nonzero"/><g fill="rgb(100%, 100%, 100%)" fill-opacity="1"><g transform="translate(48.348416, 65.410244)"><g><path d="M 7.546875 0 L 5.046875 0 L 5.046875 -35.6875 L 24.609375 -35.6875 L 24.609375 -33.40625 L 7.546875 -33.40625 L 7.546875 -18.265625 L 23.65625 -18.265625 L 23.65625 -15.9375 L 7.546875 -15.9375 Z M 7.546875 0 "/></g></g></g><g fill="rgb(17.248535%, 69.40918%, 73.728943%)" fill-opacity="1"><g transform="translate(109.071794, 60.754737)"><g><path d="M 10.15625 0 L 2.9375 0 L 2.9375 -27.125 L 18.96875 -27.125 L 18.96875 -21.25 L 10.15625 -21.25 L 10.15625 -16.0625 L 18.28125 -16.0625 L 18.28125 -10.1875 L 10.15625 -10.1875 Z M 10.15625 0 "/></g></g></g><g fill="rgb(17.248535%, 69.40918%, 73.728943%)" fill-opacity="1"><g transform="translate(129.551956, 60.754737)"><g><path d="M 12.65625 0.375 C 9.15625 0.375 6.4375 -0.554688 4.5 -2.421875 C 2.5625 -4.285156 1.59375 -6.9375 1.59375 -10.375 C 1.59375 -13.925781 2.488281 -16.648438 4.28125 -18.546875 C 6.082031 -20.441406 8.644531 -21.390625 11.96875 -21.390625 C 15.132812 -21.390625 17.578125 -20.5625 19.296875 -18.90625 C 21.023438 -17.257812 21.890625 -14.882812 21.890625 -11.78125 L 21.890625 -8.546875 L 8.921875 -8.546875 C 8.972656 -7.378906 9.40625 -6.457031 10.21875 -5.78125 C 11.03125 -5.113281 12.132812 -4.78125 13.53125 -4.78125 C 14.800781 -4.78125 15.96875 -4.898438 17.03125 -5.140625 C 18.101562 -5.390625 19.265625 -5.804688 20.515625 -6.390625 L 20.515625 -1.171875 C 19.378906 -0.585938 18.203125 -0.1875 16.984375 0.03125 C 15.773438 0.257812 14.332031 0.375 12.65625 0.375 Z M 12.234375 -16.453125 C 11.378906 -16.453125 10.660156 -16.179688 10.078125 -15.640625 C 9.503906 -15.109375 9.171875 -14.269531 9.078125 -13.125 L 15.3125 -13.125 C 15.28125 -14.132812 14.988281 -14.941406 14.4375 -15.546875 C 13.894531 -16.148438 13.160156 -16.453125 12.234375 -16.453125 Z M 12.234375 -16.453125 "/></g></g></g><g fill="rgb(17.248535%, 69.40918%, 73.728943%)" fill-opacity="1"><g transform="translate(153.037359, 60.754737)"><g><path d="M 12.65625 0.375 C 9.15625 0.375 6.4375 -0.554688 4.5 -2.421875 C 2.5625 -4.285156 1.59375 -6.9375 1.59375 -10.375 C 1.59375 -13.925781 2.488281 -16.648438 4.28125 -18.546875 C 6.082031 -20.441406 8.644531 -21.390625 11.96875 -21.390625 C 15.132812 -21.390625 17.578125 -20.5625 19.296875 -18.90625 C 21.023438 -17.257812 21.890625 -14.882812 21.890625 -11.78125 L 21.890625 -8.546875 L 8.921875 -8.546875 C 8.972656 -7.378906 9.40625 -6.457031 10.21875 -5.78125 C 11.03125 -5.113281 12.132812 -4.78125 13.53125 -4.78125 C 14.800781 -4.78125 15.96875 -4.898438 17.03125 -5.140625 C 18.101562 -5.390625 19.265625 -5.804688 20.515625 -6.390625 L 20.515625 -1.171875 C 19.378906 -0.585938 18.203125 -0.1875 16.984375 0.03125 C 15.773438 0.257812 14.332031 0.375 12.65625 0.375 Z M 12.234375 -16.453125 C 11.378906 -16.453125 10.660156 -16.179688 10.078125 -15.640625 C 9.503906 -15.109375 9.171875 -14.269531 9.078125 -13.125 L 15.3125 -13.125 C 15.28125 -14.132812 14.988281 -14.941406 14.4375 -15.546875 C 13.894531 -16.148438 13.160156 -16.453125 12.234375 -16.453125 Z M 12.234375 -16.453125 "/></g></g></g><g fill="rgb(17.248535%, 69.40918%, 73.728943%)" fill-opacity="1"><g transform="translate(176.522763, 60.754737)"><g><path d="M 9.765625 0 L 2.5 0 L 2.5 -28.875 L 9.765625 -28.875 Z M 9.765625 0 "/></g></g></g><g fill="rgb(17.248535%, 69.40918%, 73.728943%)" fill-opacity="1"><g transform="translate(188.80344, 60.754737)"><g><path d="M 18.734375 -6.453125 C 18.734375 -4.203125 17.96875 -2.5 16.4375 -1.34375 C 14.90625 -0.195312 12.703125 0.375 9.828125 0.375 C 8.273438 0.375 6.921875 0.289062 5.765625 0.125 C 4.617188 -0.0390625 3.445312 -0.347656 2.25 -0.796875 L 2.25 -6.609375 C 3.375 -6.109375 4.601562 -5.695312 5.9375 -5.375 C 7.28125 -5.0625 8.476562 -4.90625 9.53125 -4.90625 C 11.101562 -4.90625 11.890625 -5.257812 11.890625 -5.96875 C 11.890625 -6.34375 11.671875 -6.675781 11.234375 -6.96875 C 10.796875 -7.257812 9.519531 -7.828125 7.40625 -8.671875 C 5.476562 -9.460938 4.128906 -10.359375 3.359375 -11.359375 C 2.585938 -12.367188 2.203125 -13.648438 2.203125 -15.203125 C 2.203125 -17.148438 2.957031 -18.664062 4.46875 -19.75 C 5.976562 -20.84375 8.113281 -21.390625 10.875 -21.390625 C 12.257812 -21.390625 13.5625 -21.238281 14.78125 -20.9375 C 16 -20.632812 17.265625 -20.191406 18.578125 -19.609375 L 16.609375 -14.9375 C 15.640625 -15.375 14.617188 -15.742188 13.546875 -16.046875 C 12.472656 -16.347656 11.59375 -16.5 10.90625 -16.5 C 9.71875 -16.5 9.125 -16.207031 9.125 -15.625 C 9.125 -15.257812 9.332031 -14.953125 9.75 -14.703125 C 10.164062 -14.453125 11.363281 -13.9375 13.34375 -13.15625 C 14.8125 -12.550781 15.90625 -11.957031 16.625 -11.375 C 17.351562 -10.789062 17.882812 -10.101562 18.21875 -9.3125 C 18.5625 -8.53125 18.734375 -7.578125 18.734375 -6.453125 Z M 18.734375 -6.453125 "/></g></g></g></svg>